<svg xmlns="http://www.w3.org/2000/svg" aria-hidden="true" style="position:absolute;width:0;height:0;overflow:hidden">
  <defs>
    <symbol id="icon-audio" viewBox="0 0 32 32">
      <path fill="none" stroke="#5f1a89" stroke-linecap="round" stroke-linejoin="round" stroke-width="2" d="M28 22.667V16a12 12 0 1 0-23.998 0v6.667" style="stroke:var(--color1, #5f1a89)"/>
      <path fill="none" stroke="#5f1a89" stroke-linecap="round" stroke-linejoin="round" stroke-width="2" d="M21.333 19.944c0-.681 0-1.023.079-1.293.18-.624.653-1.099 1.24-1.245 1.696-.424 2.04 1.152 3.257 1.643l.092.037c1.323.556 1.996 1.971 1.993 3.405v.476c-.004 1.267-.68 2.447-1.804 3.029-1.252.647-1.669 2.336-3.487 1.947-.583-.125-1.063-.572-1.267-1.177-.104-.308-.104-.712-.104-1.515v-5.307zm-10.666 5.445c0 .681 0 1.021-.079 1.293-.18.624-.653 1.099-1.24 1.245-1.696.424-2.04-1.153-3.257-1.643l-.083-.033c-1.331-.557-2.005-1.973-2.003-3.409v-.485c.004-1.261.679-2.437 1.804-3.02 1.252-.647 1.669-2.336 3.487-1.947.583.125 1.063.572 1.267 1.177.104.308.104.711.104 1.515v5.307z" style="stroke:var(--color1, #5f1a89)"/>
    </symbol>
    <symbol id="icon-close" viewBox="0 0 32 32">
      <path fill="none" stroke="#264522" stroke-linecap="round" stroke-linejoin="round" stroke-width="1.091" d="m20.166 20.893-9.257-9.257M20.405 11.636l-9.257 9.257" style="stroke:var(--color2, #264522)"/>
    </symbol>
    <symbol id="icon-companions" viewBox="0 0 32 32">
      <path fill="none" stroke="#5f1a89" stroke-linecap="round" stroke-linejoin="round" d="M16 29c4.433 0 9.621-3.17 9.804-9.165C26.053 11.666 22.767 3 16 3S5.947 11.667 6.196 19.835C6.379 25.83 11.567 29 16 29z" style="stroke:var(--color1, #5f1a89)"/>
      <path fill="none" stroke="#5f1a89" stroke-linecap="round" stroke-linejoin="round" d="m24.832 18.88-1.383-2.54.075-2.117m1.308 4.657v4.888l-.935-2.148-.971.249-1.171-1.394-1.444 1.967-.2 2.939-2.067 1.644-1.656.897-1.557-1.744v-1.967l2.117-1.245.996-1.469-.224-3.213-.772-2.409.112-1.9-.66-3.487 1.32-1.669m7.112 10.061.31-1.668L24.644 16l-1.121-1.777m0 0-.075-2.74s-.897-2.092-.847-2.167-.353-3.005-.353-3.005l-2.013-.482-2.515-.402v3.391m5.803 5.405-1.195-.996-1.545-3.113-1.643-.299-1.419-.997" style="stroke:var(--color1, #5f1a89)"/>
      <path fill="none" stroke="#5f1a89" stroke-linecap="round" stroke-linejoin="round" d="m21.755 20.474.598-2.64 1.096-1.494M19.303 3.783l.933 2.047m-2.515-.402L16.5 4.807l-2.117-.471-1.333-.721m3.351 6.872-3.611.996-1.569-2.665-2.679-.607 2.15 3.271-.617 2.491m12.253-.746-1.221 2.067-1.843.58-1.544 2.409-1.721-.423-1.816.697-.822-2.802-1.669-2.403-1.619.897-.274 2.092.274 2.465.623 2.739M14.831 24.21l-1.619-.473-.996-2.483-1.519.291-.324 2.815.399 2.316 1.195.623 1.469-.822 1.395-.299" style="stroke:var(--color1, #5f1a89)"/>
      <path fill="none" stroke="#5f1a89" stroke-linecap="round" stroke-linejoin="round" d="m10.373 24.359-1.832-.084m0 0L7.21 21.818m1.331 2.457-.479.908m-.851-3.364.125-2.316m-.125 2.316-.842-.404m.966-1.912L6.304 16.34m1.031 3.163 2.739-.697m4.11-.249-1.581 1.544-.386 1.153m-5.536-7.545.655.738 2.167-.947.573.747m2.713-2.764-1.096 1.868m2.69-9.015-2.465 1.719-.697 2.764m5.167 19.102.306 1.054m3.417-3.595 1.83 1.709m-3.996-5.594 2.366.946m-8.344 4.857.249.961m-1.444-1.584-1.243.011" style="stroke:var(--color1, #5f1a89)"/>
    </symbol>
    <symbol id="icon-content" viewBox="0 0 32 32">
      <path fill="none" stroke="#5f1a89" stroke-linecap="round" stroke-linejoin="round" stroke-width="2" d="M18.667 12.556c1.117-1.123 2.391-1.889 4-1.889a5.332 5.332 0 1 1 0 10.666c-6 0-7.333-10.667-13.333-10.667a5.334 5.334 0 0 0 0 10.666c1.609 0 2.883-.767 4-1.889" style="stroke:var(--color1, #5f1a89)"/>
    </symbol>
    <symbol id="icon-facebook" viewBox="0 0 32 32">
      <path fill="#3d5a98" d="M29.163 1.207H2.84c-.902 0-1.633.731-1.633 1.633v26.323c0 .901.731 1.633 1.633 1.633h26.323c.901 0 1.633-.731 1.633-1.633V2.84c0-.902-.731-1.633-1.633-1.633z" style="fill:var(--color3, #3d5a98)"/>
      <path fill="#fff" d="M21.62 30.792V19.335h3.845l.575-4.465h-4.42v-2.85c0-1.293.36-2.175 2.213-2.175h2.365v-4a31.755 31.755 0 0 0-3.448-.17c-3.405 0-5.75 2.075-5.75 5.902v3.293h-3.845v4.465H17v11.457h4.62z" style="fill:var(--color4, #fff)"/>
    </symbol>
    <symbol id="icon-gameplay" viewBox="0 0 32 32">
      <path fill="#5f1a89" d="M4 11.333v12.5a4.167 4.167 0 0 0 4.166 4.166h15.667a4.167 4.167 0 0 0 4.166-4.166V8.166A4.167 4.167 0 0 0 23.833 4H11.332v1.667h.001v5.667H4zM5.667 19v-6h5.667v6H5.667zm0 4.833v-3.167h5.667v5.667H8.167a2.5 2.5 0 0 1-2.5-2.5zM19 26.333h-6v-5.667h6v5.667zm4.833 0h-3.167v-5.667h5.667v3.167a2.5 2.5 0 0 1-2.5 2.5zM26.333 13v6h-5.667v-6h5.667zm0-4.833v3.167h-5.667V5.667h3.167a2.5 2.5 0 0 1 2.5 2.5zM13 5.667h6v5.667h-6V5.667zM19 13v6h-6v-6h6z" style="fill:var(--color1, #5f1a89)"/>
    </symbol>
    <symbol id="icon-instagram" viewBox="0 0 32 32">
      <path d="M24.5 0h-17A7.5 7.5 0 0 0 0 7.5v17A7.5 7.5 0 0 0 7.5 32h17a7.5 7.5 0 0 0 7.5-7.5v-17A7.5 7.5 0 0 0 24.5 0z" style="fill:var(--color5, #000)"/>
      <path d="M24.5 0h-17A7.5 7.5 0 0 0 0 7.5v17A7.5 7.5 0 0 0 7.5 32h17a7.5 7.5 0 0 0 7.5-7.5v-17A7.5 7.5 0 0 0 24.5 0z" style="fill:var(--color5, #000)"/>
      <path fill="#fff" d="M16.001 3.5c-3.395 0-3.821.015-5.154.075-1.331.061-2.239.272-3.034.581-.822.319-1.52.746-2.214 1.441S4.476 6.989 4.156 7.811c-.31.795-.521 1.704-.581 3.034-.06 1.333-.075 1.76-.075 5.155s.015 3.82.075 5.153c.061 1.331.272 2.239.581 3.034.319.822.747 1.52 1.442 2.214s1.392 1.124 2.214 1.443c.795.309 1.704.52 3.034.581 1.333.061 1.759.076 5.154.076s3.82-.015 5.153-.076c1.331-.061 2.24-.272 3.036-.581.822-.319 1.518-.747 2.213-1.443s1.122-1.392 1.443-2.214c.307-.795.518-1.704.581-3.034.06-1.333.075-1.758.075-5.153s-.015-3.821-.075-5.154c-.063-1.331-.274-2.239-.581-3.034-.32-.822-.747-1.52-1.443-2.215s-1.391-1.122-2.213-1.441c-.797-.309-1.706-.52-3.037-.581-1.333-.061-1.758-.075-5.154-.075h.004zM14.88 5.753h1.121c3.338 0 3.733.012 5.051.072 1.219.056 1.88.259 2.321.431.583.226.999.497 1.436.935s.708.854.935 1.438c.171.44.375 1.101.43 2.32.06 1.318.073 1.713.073 5.05s-.013 3.732-.073 5.05c-.056 1.219-.259 1.88-.43 2.32-.227.583-.498.999-.935 1.436s-.853.708-1.436.935c-.44.172-1.102.375-2.321.431-1.318.06-1.714.073-5.051.073s-3.733-.013-5.051-.073c-1.219-.056-1.88-.26-2.321-.431-.583-.227-1-.497-1.438-.935s-.708-.853-.935-1.437c-.171-.44-.375-1.102-.431-2.32-.06-1.318-.072-1.713-.072-5.052s.012-3.732.072-5.05c.056-1.219.259-1.88.431-2.321.227-.583.498-1 .936-1.438s.854-.708 1.438-.935c.441-.172 1.102-.375 2.321-.431 1.153-.052 1.6-.068 3.93-.07v.003zm7.794 2.075a1.5 1.5 0 1 0 0 3.001 1.5 1.5 0 0 0 0-3.002zm-6.673 1.753a6.42 6.42 0 1 0 .002 12.838A6.42 6.42 0 0 0 16 9.581zm0 2.252a4.167 4.167 0 1 1 0 8.334 4.167 4.167 0 0 1 0-8.334z" style="fill:var(--color4, #fff)"/>
    </symbol>
    <symbol id="icon-menu" viewBox="0 0 32 32">
      <path fill="none" stroke="#264522" stroke-linecap="round" stroke-width="1.091" d="M9.455 12.364h13.091M9.455 16h13.091M9.455 19.636h13.091" style="stroke:var(--color2, #264522)"/>
    </symbol>
    <symbol id="icon-progression" viewBox="0 0 32 32">
      <path fill="#5f1a89" d="m28.938 1.269-9.212 3.459 3.306 2.084c-5.906 7.437-14.45 12.019-21.669 13.763L3.408 24.3c8.111-2.644 16.699-7.412 22.23-15.837l2.519 1.587.781-8.781zm.481 7.294-.3 3.425-3.206-2.025c-.113.169-.231.331-.35.5v19.975h4.875V8.563h-1.019zm-9.413 8a39.52 39.52 0 0 1-2.444 1.95v11.925h4.875V16.563h-2.431zm-7.731 5.25c-.9.475-1.8.913-2.712 1.325v7.3h4.875v-8.625h-2.162zm-10.712 2.75v5.875h4.875v-5.875h-.355c-.926.344-1.852.663-2.772.956l-.441.137-.6-1.094h-.707z" style="fill:var(--color1, #5f1a89)"/>
    </symbol>
    <symbol id="icon-relaxing" viewBox="0 0 32 32">
      <path fill="#5f1a89" d="M16 23.333c.756 0 1.467-.139 2.133-.416s1.289-.672 1.867-1.184c.2-.178.3-.411.3-.7s-.1-.522-.3-.7c-.2-.178-.439-.267-.716-.267s-.528.089-.751.267c-.378.289-.778.522-1.2.7s-.867.267-1.333.267c-.467 0-.911-.089-1.333-.267s-.822-.411-1.2-.7c-.222-.178-.472-.267-.749-.267s-.516.089-.717.267-.301.411-.3.7a.898.898 0 0 0 .3.7c.578.489 1.2.878 1.867 1.167s1.378.433 2.133.433zm0 6c-1.845 0-3.578-.35-5.2-1.051s-3.033-1.65-4.233-2.849-2.15-2.61-2.849-4.233c-.7-1.623-1.05-3.357-1.051-5.2s.349-3.577 1.051-5.2 1.651-3.034 2.849-4.233C7.765 5.368 9.176 4.418 10.8 3.718s3.357-1.051 5.2-1.051 3.576.35 5.2 1.051 3.035 1.65 4.233 2.849c1.198 1.199 2.148 2.61 2.851 4.233s1.052 3.356 1.049 5.2c-.003 1.843-.353 3.577-1.051 5.2s-1.648 3.034-2.849 4.233-2.613 2.149-4.233 2.851c-1.62.701-3.354 1.051-5.2 1.049zm0-2.666c2.978 0 5.5-1.033 7.567-3.1s3.1-4.589 3.1-7.567-1.033-5.5-3.1-7.567-4.589-3.1-7.567-3.1-5.5 1.033-7.567 3.1-3.1 4.589-3.1 7.567 1.033 5.5 3.1 7.567 4.589 3.1 7.567 3.1zM11.333 16c.711 0 1.35-.222 1.917-.667s1.006-.989 1.316-1.633c.111-.289.117-.572.017-.851s-.294-.45-.584-.516c-.245-.067-.489-.039-.733.084s-.422.306-.533.549c-.155.289-.35.533-.583.733s-.505.3-.817.3-.59-.105-.833-.316a2.218 2.218 0 0 1-.567-.751c-.111-.244-.289-.422-.533-.533s-.489-.133-.733-.067c-.289.067-.483.239-.583.517s-.083.561.049.849c.267.667.689 1.217 1.267 1.651s1.222.65 1.933.649zm9.334 0c.711 0 1.35-.222 1.917-.667s1.006-.989 1.316-1.633c.111-.289.117-.572.017-.849s-.294-.45-.584-.517c-.244-.067-.489-.039-.733.084s-.422.306-.533.549c-.155.289-.35.533-.583.733s-.505.3-.817.3c-.312 0-.59-.105-.833-.316s-.432-.461-.567-.751c-.111-.244-.289-.422-.533-.533s-.489-.133-.733-.067c-.289.067-.484.239-.584.517s-.084.561.051.849c.267.667.689 1.217 1.267 1.651s1.222.65 1.933.649z" style="fill:var(--color1, #5f1a89)"/>
    </symbol>
    <symbol id="icon-start" viewBox="0 0 32 32">
      <path fill="#5f1a89" d="M11.5 6c-.927.004-1.815.374-2.471 1.029S8.003 8.573 8 9.5c0 1.922 1.578 3.5 3.5 3.5S15 11.422 15 9.5 13.422 6 11.5 6zm9 0c-.927.004-1.815.374-2.471 1.029S17.003 8.573 17 9.5c0 1.922 1.578 3.5 3.5 3.5S24 11.422 24 9.5 22.422 6 20.5 6zm-9 2c.84 0 1.5.66 1.5 1.5s-.66 1.5-1.5 1.5-1.5-.66-1.5-1.5.66-1.5 1.5-1.5zm9 0c.84 0 1.5.66 1.5 1.5s-.66 1.5-1.5 1.5-1.5-.66-1.5-1.5.66-1.5 1.5-1.5zM7 12c-2.2 0-4 1.8-4 4 0 1.113.477 2.117 1.219 2.844A5.045 5.045 0 0 0 2 23h2c0-1.668 1.332-3 3-3s3 1.332 3 3h2a5.03 5.03 0 0 0-2.219-4.156C10.523 18.117 11 17.114 11 16c0-2.2-1.8-4-4-4zm5 11c-.625.836-1 1.887-1 3h2c0-1.668 1.332-3 3-3s3 1.332 3 3h2a5.015 5.015 0 0 0-2.219-4.156C19.523 21.117 20 20.114 20 19c0-2.2-1.8-4-4-4s-4 1.8-4 4c0 1.113.477 2.117 1.219 2.844A4.999 4.999 0 0 0 12 23zm8 0h2c0-1.668 1.332-3 3-3s3 1.332 3 3h2a5.03 5.03 0 0 0-2.219-4.156C28.523 18.117 29 17.114 29 16c0-2.2-1.8-4-4-4s-4 1.8-4 4c0 1.113.477 2.117 1.219 2.844A5.045 5.045 0 0 0 20 23zM7 14c1.117 0 2 .883 2 2s-.883 2-2 2-2-.883-2-2 .883-2 2-2zm18 0c1.117 0 2 .883 2 2s-.883 2-2 2-2-.883-2-2 .883-2 2-2zm-9 3c1.117 0 2 .883 2 2s-.883 2-2 2-2-.883-2-2 .883-2 2-2z" style="fill:var(--color1, #5f1a89)"/>
    </symbol>
    <symbol id="icon-twitter" viewBox="0 0 32 32">
      <path d="M4.571 0A4.575 4.575 0 0 0 0 4.571v22.857a4.575 4.575 0 0 0 4.571 4.571h22.857a4.575 4.575 0 0 0 4.571-4.571V4.571A4.575 4.575 0 0 0 27.428 0H4.571zm21.222 6-7.414 8.471L27.1 26h-6.828l-5.343-6.993L8.808 26H5.415l7.929-9.064L4.98 6h7l4.836 6.393L22.402 6h3.393zm-2.7 17.971L10.957 7.921H8.936l12.271 16.05h1.886z"/>
    </symbol>
    <symbol id="icon-visuals" viewBox="0 0 32 32">
      <path fill="#5f1a89" d="M16 3.667c-6.809 0-12.333 5.535-12.333 12.368 0 6.349 4.772 11.58 10.911 12.287.616.071 1.276-.187 1.804-.716a1.24 1.24 0 0 0 0-1.752c-.416-.416-.833-.973-1.061-1.604-.233-.647-.292-1.459.183-2.213.431-.684 1.076-1.051 1.753-1.229.653-.171 1.375-.181 2.069-.139.731.053 1.459.133 2.184.239.743.096 1.467.185 2.168.219 1.432.068 2.536-.112 3.289-.728.723-.591 1.367-1.788 1.367-4.363 0-6.833-5.524-12.368-12.333-12.368zM1.667 16.035C1.667 8.102 8.082 1.667 16 1.667s14.333 6.435 14.333 14.368c0 2.86-.716 4.779-2.1 5.911-1.352 1.105-3.101 1.252-4.652 1.177a29.53 29.53 0 0 1-2.483-.253c-.693-.089-1.32-.171-1.893-.205-.623-.037-1.095-.013-1.44.077-.32.084-.475.209-.569.36-.052.083-.088.211.005.468.099.275.315.589.596.872a3.238 3.238 0 0 1 0 4.576c-.867.869-2.107 1.445-3.449 1.291-7.14-.821-12.681-6.9-12.681-14.273zM12.78 8.333a.997.997 0 0 0-1 1 .997.997 0 0 0 1 1 .997.997 0 0 0 1-1 .997.997 0 0 0-1-1zm-3 1a3.004 3.004 0 0 1 3-3 3.004 3.004 0 0 1 3 3 3.004 3.004 0 0 1-3 3 3.004 3.004 0 0 1-3-3zm9.553-1a.997.997 0 0 0-1 1 .997.997 0 0 0 1 1 .997.997 0 0 0 1-1 .997.997 0 0 0-1-1zm-3 1a3.004 3.004 0 0 1 3-3 3.004 3.004 0 0 1 3 3 3.004 3.004 0 0 1-3 3 3.004 3.004 0 0 1-3-3zm-7.666 5a.997.997 0 0 0-1 1 .997.997 0 0 0 1 1 .997.997 0 0 0 1-1 .997.997 0 0 0-1-1zm-3 1a3.004 3.004 0 0 1 3-3 3.004 3.004 0 0 1 3 3 3.004 3.004 0 0 1-3 3 3.004 3.004 0 0 1-3-3zm17.666-1a.997.997 0 0 0-1 1 .997.997 0 0 0 1 1 .997.997 0 0 0 1-1 .997.997 0 0 0-1-1zm-3 1a3.014 3.014 0 0 1 .878-2.121 2.989 2.989 0 0 1 2.121-.878 3.014 3.014 0 0 1 2.121.878 2.989 2.989 0 0 1 .878 2.121 3.004 3.004 0 0 1-3 3 3.004 3.004 0 0 1-3-3z" style="fill:var(--color1, #5f1a89)"/>
    </symbol>
    <symbol id="icon-arrow-down" viewBox="0 0 32 32">
      <path d="M9.094 13.857a1.143 1.143 0 0 1 0-1.616l.197-.197a1.143 1.143 0 0 1 1.615-.001l4.286 4.277a1.143 1.143 0 0 0 1.614 0l4.286-4.277a1.143 1.143 0 0 1 1.615.001l.198.197c.446.446.446 1.17 0 1.616l-6.098 6.098a1.143 1.143 0 0 1-1.616 0l-6.098-6.098z"/>
    </symbol>
    <symbol id="icon-close1" viewBox="0 0 32 32">
      <path fill="none" stroke="#fff" stroke-linecap="round" stroke-linejoin="round" stroke-width="1.714" d="M9.714 23.429 23.428 9.715m.001 13.714L9.715 9.715" style="stroke:var(--color4, #fff)"/>
    </symbol>
    <symbol id="icon-menu1" viewBox="0 0 32 32">
      <path stroke-linecap="round" stroke-width="2.286" d="M4.429 9.571h23.143M4.429 16h23.143M4.429 22.429h23.143"/>
    </symbol>
    <symbol id="icon-plus" viewBox="0 0 32 32">
      <path fill="none" stroke="#fff" stroke-linecap="round" stroke-linejoin="round" stroke-width="1.778" d="M8 16h16m-8 8V8" style="stroke:var(--color4, #fff)"/>
    </symbol>
  </defs>
</svg>
